<svg xmlns="http://www.w3.org/2000/svg" viewBox="0 0 99.8 115.2" width="99.8" height="115.2" > <defs > <style type="text/css" > .st0 {
  fill: #FFFFFF;
}
.st1 {
  fill: #03316C;
}
.st2 {
  fill: #002E73;
}
</style> </defs> <path class="st0" d="M 49.9 0 L 0 28.8 L 0 86.4 L 49.9 115.2 L 99.8 86.4 L 99.8 28.8 L 49.9 0 Z M 49.9 0 L 0 28.8 L 0 86.4 L 49.9 115.2 L 99.8 86.4 L 99.8 28.8 L 49.9 0 Z"/> <path class="st1" d="M 69.6 92.7 L 62.5 92.7 L 54 84.9 L 54 80.9 L 62.8 72.5 L 62.8 59.2 L 74.3 51.7 L 87.4 61.6 L 69.6 92.7 Z M 40.2 71.7 L 41.5 59.2 L 37.2 48 L 62.6 48 L 58.4 59.2 L 59.6 71.7 L 49.8 71.7 L 40.2 71.7 Z M 46 84.9 L 37.5 92.8 L 30.3 92.8 L 12.4 61.6 L 25.6 51.8 L 37.2 59.2 L 37.2 72.5 L 46 80.9 L 46 84.9 Z M 30.2 24.9 L 69.5 24.9 L 74.2 44.9 L 25.6 44.9 L 30.2 24.9 Z M 49.9 0 L 0 28.8 L 0 86.4 L 49.9 115.2 L 99.8 86.4 L 99.8 28.8 L 49.9 0 Z"/> </svg>
