<svg xmlns="http://www.w3.org/2000/svg" viewBox="18.044 18.604 81.583 81.145" width="81.583" height="81.145"> <rect x="18.044" y="18.604" width="81.583" height="81.145" rx="18" ry="18" style="paint-order: fill; fill-rule: nonzero; stroke-width: 0px; stroke: rgb(200, 109, 109); fill: rgb(198, 12, 48);"/> <path d="M 73.269 80.115 L 75.753 80.115 C 76.995 80.115 77.763 80.588 77.763 81.595 C 77.763 81.891 77.703 82.245 77.645 82.66 C 77.645 82.778 76.521 88.812 76.521 88.812 C 76.284 90.112 75.161 91.178 73.504 91.178 L 69.954 91.178 C 62.087 91.178 59.366 86.268 59.189 81.538 C 58.657 81.598 56.291 82.188 53.629 82.188 C 40.202 82.188 33.814 73.434 33.814 61.426 C 33.816 46.517 43.93 27.175 64.041 27.175 C 77.291 27.175 83.856 35.752 83.856 47.877 C 83.856 60.772 76.64 72.424 69.896 76.801 C 69.896 78.339 71.079 80.113 73.268 80.113 L 73.269 80.115 Z M 67.236 46.339 C 67.236 42.199 65.816 39.299 61.558 39.299 C 51.858 39.299 50.378 60.119 50.378 62.959 C 50.378 66.804 51.502 70.116 56.056 70.116 C 65.696 70.056 67.236 49.828 67.236 46.338 L 67.236 46.339 Z" style="fill: rgb(255, 255, 255);"/> </svg>
